<svg xmlns="http://www.w3.org/2000/svg" xmlns:v="https://svgstorm.com"
viewBox = "0 0 262 355"
width="262"
height="355">
<g fill="None" fill-opacity="0.0" stroke="#000000" stroke-opacity="0.00" stroke-width="0.3"><path d="
M 0.00 355.00 
L 262.00 355.00
L 262.00 0.00
L 0.00 0.00
L 0.00 355.00
M 133.00 5.00 
C 136.16 5.78 140.73 6.76 141.00 11.00
C 152.36 10.30 162.93 15.11 171.75 21.25 C 180.57 27.39 184.14 37.34 187.00 44.00
C 189.72 48.98 190.00 55.26 190.00 61.00
C 190.27 63.75 191.00 67.58 191.00 71.00
C 191.00 75.54 189.29 82.85 192.75 86.25 C 196.22 89.64 197.67 93.14 198.00 98.00
C 198.62 101.47 198.55 104.60 198.00 108.00
C 197.64 114.71 194.84 120.55 191.00 126.00
C 190.79 126.30 190.21 126.73 190.00 127.00
C 183.39 137.69 179.59 148.78 171.70 159.70 C 163.80 170.61 153.65 176.30 140.99 179.99 C 128.33 183.69 112.14 179.85 101.00 172.00
C 100.70 171.79 100.27 171.21 100.00 171.00
C 95.17 168.01 88.02 161.39 86.00 156.00
C 85.54 154.77 86.17 155.52 86.00 154.00
C 84.22 150.12 77.21 146.77 77.68 140.32 C 78.15 133.88 71.99 130.83 69.00 126.00
C 68.79 125.73 68.17 125.33 68.00 125.00
C 64.95 119.12 62.37 113.75 62.00 107.00
C 61.54 104.14 61.54 101.80 62.00 99.00
C 62.22 94.89 63.15 92.57 65.00 89.00
C 65.17 88.67 65.76 88.25 66.00 88.00
C 66.67 86.94 66.98 86.65 68.00 86.00
C 68.25 85.76 68.88 85.26 69.00 85.00
C 69.05 84.50 69.00 84.00 69.00 84.00
C 69.00 83.50 69.00 83.00 69.00 83.00
C 69.00 70.22 68.27 57.80 72.00 46.00
C 78.29 26.12 92.65 14.16 112.00 12.00
C 112.68 11.83 113.90 11.21 115.00 11.00
C 119.40 9.45 121.31 6.27 126.00 5.00
C 128.80 4.24 130.27 4.32 133.00 5.00
M 182.00 172.00 
C 182.32 172.20 182.74 172.77 183.00 173.00
C 185.36 174.66 189.22 177.59 192.08 177.92 C 194.93 178.25 199.34 183.11 199.00 183.00
C 200.38 183.16 201.14 182.86 202.00 183.00
C 212.97 184.84 224.94 192.61 234.00 199.00
C 234.30 199.21 234.75 199.75 235.00 200.00
C 258.20 218.88 258.00 249.02 258.00 278.00
C 258.36 281.67 259.31 285.22 258.00 289.00
C 255.27 296.88 243.45 296.97 235.78 299.78 C 228.10 302.58 216.40 304.85 208.00 306.00
C 207.22 306.22 206.21 306.80 205.00 307.00
C 193.98 308.87 181.63 312.45 171.00 311.00
C 176.74 307.44 182.85 301.82 186.00 296.00
C 195.94 297.95 207.80 297.30 216.69 292.69 C 225.59 288.09 230.20 285.13 236.25 276.25 C 242.31 267.38 241.35 258.40 241.07 246.93 C 240.79 235.45 229.91 232.26 222.92 238.92 C 215.92 245.58 208.74 254.96 201.10 248.90 C 193.46 242.84 208.92 232.70 213.00 229.00
C 214.03 227.95 214.88 226.93 216.00 226.00
C 219.81 222.83 222.79 219.11 220.00 214.00
C 219.86 213.80 218.14 212.10 218.00 212.00
C 216.58 211.24 213.55 208.25 213.00 208.00
C 211.91 207.90 211.88 208.21 211.00 208.00
C 207.28 207.13 203.78 205.84 200.00 205.00
C 196.84 204.67 193.18 204.78 190.00 205.00
C 179.77 205.70 166.74 211.72 161.00 221.00
C 160.80 221.32 160.23 221.74 160.00 222.00
C 152.46 232.71 151.48 245.81 152.00 259.00
C 134.98 270.67 120.35 286.95 104.00 300.00
C 102.97 301.05 102.12 302.07 101.00 303.00
C 98.30 305.24 95.73 307.91 93.00 310.00
C 92.20 310.81 92.25 311.62 91.00 312.00
C 82.50 314.61 71.28 307.94 62.33 307.67 C 53.38 307.40 44.65 303.34 35.33 301.67 C 26.01 300.00 18.74 296.47 8.78 294.22 C -1.18 291.98 2.23 277.74 2.93 268.93 C 3.62 260.11 3.78 246.98 4.99 237.99 C 6.20 229.00 8.70 220.53 14.00 213.00
C 14.21 212.70 14.79 212.27 15.00 212.00
C 18.26 206.72 24.18 202.39 29.00 199.00
C 29.26 198.77 29.70 198.21 30.00 198.00
C 38.46 192.04 52.09 184.53 61.69 181.69 C 71.30 178.86 85.51 162.81 91.30 172.70 C 97.10 182.58 100.19 194.31 111.00 201.00
C 111.32 201.20 111.73 201.79 112.00 202.00
C 119.44 206.60 123.90 215.80 131.00 220.00
C 132.11 217.59 134.96 216.38 136.00 214.00
C 138.49 211.09 141.14 208.44 144.00 206.00
C 145.94 204.34 148.08 202.59 150.00 201.00
C 151.03 199.95 151.88 198.93 153.00 198.00
C 154.57 196.69 155.78 195.59 157.00 194.00
C 157.65 193.14 158.34 192.69 159.00 192.00
C 166.90 181.17 167.20 162.85 182.00 172.00
M 232.00 250.00 
C 232.73 253.26 232.51 255.86 232.00 259.00
C 231.14 274.79 216.14 286.48 201.00 287.00
C 198.63 287.34 196.25 287.22 194.00 287.00
C 184.60 287.00 177.88 288.09 172.25 296.25 C 166.62 304.41 161.28 305.75 155.75 312.75 C 150.22 319.76 144.67 323.87 139.00 330.00
C 136.14 333.09 132.91 336.09 130.00 339.00
C 121.25 349.24 108.26 359.70 95.30 348.70 C 82.35 337.69 92.13 323.39 102.23 315.23 C 112.33 307.07 120.74 298.76 130.08 290.08 C 139.43 281.40 149.52 274.50 158.08 265.08 C 166.64 255.66 158.34 236.19 170.25 226.25 C 182.16 216.30 194.87 210.56 210.00 218.00
C 203.78 224.60 201.36 227.92 193.75 233.75 C 186.14 239.58 191.12 250.20 193.00 258.00
C 200.22 258.71 209.71 262.87 215.75 257.75 C 221.78 252.62 225.33 248.32 232.00 245.00
C 232.00 246.67 232.00 248.33 232.00 250.00 Z"/>
</g>
<g fill="None" fill-opacity="0.0" stroke="#96AABD" stroke-opacity="0.91" stroke-width="0.3"><path d="
M 126.00 5.00 
C 128.10 4.72 130.89 4.76 133.00 5.00
C 130.27 4.32 128.80 4.24 126.00 5.00 Z"/>
</g>
<g fill="None" fill-opacity="0.0" stroke="#002C5A" stroke-opacity="1.00" stroke-width="0.3"><path d="
M 115.00 11.00 
C 114.04 11.34 113.42 11.84 112.00 12.00
C 92.65 14.16 78.29 26.12 72.00 46.00
C 71.18 53.56 70.26 61.08 70.00 70.00 C 69.74 78.92 71.72 85.27 65.08 92.08 C 58.44 98.89 65.95 108.80 65.78 116.22 C 65.60 123.65 76.57 127.32 77.32 133.68 C 78.07 140.04 85.35 148.01 86.00 154.00
C 86.17 155.52 85.54 154.77 86.00 156.00
C 94.53 166.25 105.07 174.94 120.07 178.93 C 135.08 182.91 152.69 175.86 164.25 165.25 C 175.80 154.64 178.49 139.36 187.23 128.23 C 195.97 117.10 204.00 95.55 189.00 86.00
C 191.89 72.27 186.79 56.65 187.00 44.00
C 184.14 37.34 180.57 27.39 171.75 21.25 C 162.93 15.11 152.36 10.30 141.00 11.00
C 140.73 6.76 136.16 5.78 133.00 5.00
C 130.89 4.76 128.10 4.72 126.00 5.00
C 121.31 6.27 119.40 9.45 115.00 11.00
M 176.00 125.00 
C 174.63 134.77 170.13 144.30 164.25 152.25 C 158.36 160.20 152.04 165.98 142.92 169.92 C 133.80 173.87 119.46 171.89 111.31 166.69 C 103.15 161.50 96.59 155.04 92.08 146.92 C 87.58 138.79 85.01 127.48 78.25 121.75 C 71.49 116.03 67.15 98.83 74.25 93.25 C 81.36 87.68 93.84 93.22 102.08 86.08 C 110.32 78.94 123.93 79.34 134.00 79.00 C 144.07 78.66 155.81 82.78 164.08 87.92 C 172.34 93.07 185.76 87.09 188.32 98.68 C 190.88 110.27 184.91 119.79 176.00 125.00 Z"/>
</g>
<g fill="None" fill-opacity="0.0" stroke="#647C99" stroke-opacity="1.00" stroke-width="0.3"><path d="
M 112.00 12.00 
C 113.42 11.84 114.04 11.34 115.00 11.00
C 113.90 11.21 112.68 11.83 112.00 12.00 Z"/>
</g>
<g fill="None" fill-opacity="0.0" stroke="#102348" stroke-opacity="1.00" stroke-width="0.3"><path d="
M 86.00 156.00 
C 88.02 161.39 95.17 168.01 100.00 171.00
C 100.32 171.20 100.74 171.77 101.00 172.00
C 112.14 179.85 128.33 183.69 140.99 179.99 C 153.65 176.30 163.80 170.61 171.70 159.70 C 179.59 148.78 183.39 137.69 190.00 127.00
C 190.20 126.68 190.77 126.26 191.00 126.00
C 194.84 120.55 197.64 114.71 198.00 108.00
C 198.18 104.75 198.22 101.25 198.00 98.00
C 197.67 93.14 196.22 89.64 192.75 86.25 C 189.29 82.85 191.00 75.54 191.00 71.00
C 190.73 68.25 190.00 64.42 190.00 61.00
C 190.00 55.26 189.72 48.98 187.00 44.00
C 186.79 56.65 191.89 72.27 189.00 86.00
C 204.00 95.55 195.97 117.10 187.23 128.23 C 178.49 139.36 175.80 154.64 164.25 165.25 C 152.69 175.86 135.08 182.91 120.07 178.93 C 105.07 174.94 94.53 166.25 86.00 156.00 Z"/>
</g>
<g fill="None" fill-opacity="0.0" stroke="#0E2044" stroke-opacity="1.00" stroke-width="0.3"><path d="
M 69.00 83.00 
C 69.20 84.42 69.98 82.60 69.00 84.00
C 69.00 84.00 69.05 84.50 69.00 85.00
C 68.97 85.35 68.31 85.80 68.00 86.00
C 66.98 86.65 66.67 86.94 66.00 88.00
C 65.80 88.31 65.18 88.73 65.00 89.00
C 63.15 92.57 62.22 94.89 62.00 99.00
C 61.86 101.61 61.86 104.39 62.00 107.00
C 62.37 113.75 64.95 119.12 68.00 125.00
C 68.18 125.27 68.80 125.68 69.00 126.00
C 71.99 130.83 78.15 133.88 77.68 140.32 C 77.21 146.77 84.22 150.12 86.00 154.00
C 85.35 148.01 78.07 140.04 77.32 133.68 C 76.57 127.32 65.60 123.65 65.78 116.22 C 65.95 108.80 58.44 98.89 65.08 92.08 C 71.72 85.27 69.74 78.92 70.00 70.00 C 70.26 61.08 71.18 53.56 72.00 46.00
C 68.27 57.80 69.00 70.22 69.00 83.00 Z"/>
</g>
<g fill="None" fill-opacity="0.0" stroke="#4F6E90" stroke-opacity="1.00" stroke-width="0.3"><path d="
M 191.00 71.00 
C 191.00 67.58 190.27 63.75 190.00 61.00
C 190.00 64.42 190.73 68.25 191.00 71.00 Z"/>
</g>
<g fill="None" fill-opacity="0.0" stroke="#04153C" stroke-opacity="1.00" stroke-width="0.3"><path d="
M 176.00 125.00 
C 184.91 119.79 190.88 110.27 188.32 98.68 C 185.76 87.09 172.34 93.07 164.08 87.92 C 155.81 82.78 144.07 78.66 134.00 79.00 C 123.93 79.34 110.32 78.94 102.08 86.08 C 93.84 93.22 81.36 87.68 74.25 93.25 C 67.15 98.83 71.49 116.03 78.25 121.75 C 85.01 127.48 87.58 138.79 92.08 146.92 C 96.59 155.04 103.15 161.50 111.31 166.69 C 119.46 171.89 133.80 173.87 142.92 169.92 C 152.04 165.98 158.36 160.20 164.25 152.25 C 170.13 144.30 174.63 134.77 176.00 125.00
M 135.00 170.00 
C 132.10 170.52 129.82 170.46 127.00 170.00
C 110.86 169.12 93.32 153.54 89.08 137.92 C 84.83 122.31 62.47 107.31 78.00 91.00
C 96.57 95.05 110.45 81.48 130.00 81.00 C 149.55 80.52 163.94 93.95 182.00 91.00
C 191.73 98.62 187.39 115.06 179.25 122.25 C 171.10 129.43 170.86 143.19 163.08 152.08 C 155.30 160.97 146.86 169.17 135.00 170.00 Z"/>
</g>
<g fill="None" fill-opacity="0.0" stroke="#FAF6F6" stroke-opacity="1.00" stroke-width="0.3"><path d="
M 127.00 170.00 
C 129.60 170.14 132.40 170.18 135.00 170.00
C 146.86 169.17 155.30 160.97 163.08 152.08 C 170.86 143.19 171.10 129.43 179.25 122.25 C 187.39 115.06 191.73 98.62 182.00 91.00
C 163.94 93.95 149.55 80.52 130.00 81.00 C 110.45 81.48 96.57 95.05 78.00 91.00
C 62.47 107.31 84.83 122.31 89.08 137.92 C 93.32 153.54 110.86 169.12 127.00 170.00 Z"/>
</g>
<g fill="None" fill-opacity="0.0" stroke="#5D718E" stroke-opacity="1.00" stroke-width="0.3"><path d="
M 69.00 84.00 
C 69.98 82.60 69.20 84.42 69.00 83.00
C 69.00 83.00 69.00 83.50 69.00 84.00 Z"/>
</g>
<g fill="None" fill-opacity="0.0" stroke="#94AEC1" stroke-opacity="1.00" stroke-width="0.3"><path d="
M 68.00 86.00 
C 68.31 85.80 68.97 85.35 69.00 85.00
C 68.88 85.26 68.25 85.76 68.00 86.00 Z"/>
</g>
<g fill="None" fill-opacity="0.0" stroke="#CDD9E4" stroke-opacity="0.87" stroke-width="0.3"><path d="
M 65.00 89.00 
C 65.18 88.73 65.80 88.31 66.00 88.00
C 65.76 88.25 65.17 88.67 65.00 89.00 Z"/>
</g>
<g fill="None" fill-opacity="0.0" stroke="#526C8C" stroke-opacity="1.00" stroke-width="0.3"><path d="
M 198.00 108.00 
C 198.55 104.60 198.62 101.47 198.00 98.00
C 198.22 101.25 198.18 104.75 198.00 108.00 Z"/>
</g>
<g fill="None" fill-opacity="0.0" stroke="#9FAEBF" stroke-opacity="1.00" stroke-width="0.3"><path d="
M 62.00 107.00 
C 61.86 104.39 61.86 101.61 62.00 99.00
C 61.54 101.80 61.54 104.14 62.00 107.00 Z"/>
</g>
<g fill="None" fill-opacity="0.0" stroke="#D0E0EB" stroke-opacity="0.69" stroke-width="0.3"><path d="
M 69.00 126.00 
C 68.80 125.68 68.18 125.27 68.00 125.00
C 68.17 125.33 68.79 125.73 69.00 126.00 Z"/>
</g>
<g fill="None" fill-opacity="0.0" stroke="#8BA4BA" stroke-opacity="1.00" stroke-width="0.3"><path d="
M 190.00 127.00 
C 190.21 126.73 190.79 126.30 191.00 126.00
C 190.77 126.26 190.20 126.68 190.00 127.00 Z"/>
</g>
<g fill="None" fill-opacity="0.0" stroke="#102247" stroke-opacity="1.00" stroke-width="0.3"><path d="
M 159.00 192.00 
C 158.33 192.92 157.72 193.29 157.00 194.00
C 155.78 195.59 154.57 196.69 153.00 198.00
C 151.97 199.05 151.12 200.07 150.00 201.00
C 148.08 202.59 145.94 204.34 144.00 206.00
C 141.41 208.59 138.54 211.46 136.00 214.00
C 134.96 216.38 132.11 217.59 131.00 220.00
C 123.90 215.80 119.44 206.60 112.00 202.00
C 111.68 201.80 111.27 201.21 111.00 201.00
C 100.19 194.31 97.10 182.58 91.30 172.70 C 85.51 162.81 71.30 178.86 61.69 181.69 C 52.09 184.53 38.46 192.04 30.00 198.00
C 29.74 198.23 29.30 198.79 29.00 199.00
C 24.18 202.39 18.26 206.72 15.00 212.00
C 14.80 212.32 14.23 212.74 14.00 213.00
C 8.70 220.53 6.20 229.00 4.99 237.99 C 3.78 246.98 3.62 260.11 2.93 268.93 C 2.23 277.74 -1.18 291.98 8.78 294.22 C 18.74 296.47 26.01 300.00 35.33 301.67 C 44.65 303.34 53.38 307.40 62.33 307.67 C 71.28 307.94 82.50 314.61 91.00 312.00
C 91.27 311.88 92.63 310.28 93.00 310.00
C 95.73 307.91 98.30 305.24 101.00 303.00
C 102.03 301.95 102.88 300.93 104.00 300.00
C 120.35 286.95 134.98 270.67 152.00 259.00
C 151.48 245.81 152.46 232.71 160.00 222.00
C 160.21 221.70 160.79 221.27 161.00 221.00
C 166.74 211.72 179.77 205.70 190.00 205.00
C 193.51 204.37 196.52 204.23 200.00 205.00
C 203.78 205.84 207.28 207.13 211.00 208.00
C 201.23 201.78 182.12 200.93 170.92 209.92 C 159.71 218.91 149.26 229.32 151.00 245.00 C 152.74 260.68 138.04 266.66 127.92 276.92 C 117.79 287.17 109.39 291.83 98.75 302.75 C 88.12 313.67 71.30 307.76 56.33 304.67 C 41.35 301.58 29.25 298.03 12.99 294.01 C -3.27 289.99 6.01 265.72 5.93 251.93 C 5.84 238.13 8.33 219.95 18.75 209.75 C 29.18 199.55 39.21 193.30 52.08 188.08 C 64.95 182.85 76.50 176.38 88.00 169.00
C 91.37 175.62 94.29 184.39 98.75 190.25 C 103.22 196.10 109.50 202.74 115.25 206.75 C 121.00 210.76 126.12 223.31 132.74 219.74 C 139.37 216.17 142.48 207.55 148.75 203.75 C 155.02 199.96 160.97 191.92 164.30 186.30 C 167.64 180.69 171.13 165.83 178.25 170.76 C 185.37 175.69 190.86 180.05 199.00 183.00
C 199.34 183.11 194.93 178.25 192.08 177.92 C 189.22 177.59 185.36 174.66 183.00 173.00
C 182.70 172.79 182.27 172.21 182.00 172.00
C 167.20 162.85 166.90 181.17 159.00 192.00 Z"/>
</g>
<g fill="None" fill-opacity="0.0" stroke="#002C5A" stroke-opacity="1.00" stroke-width="0.3"><path d="
M 211.00 208.00 
C 211.88 208.21 211.91 207.90 213.00 208.00
C 225.45 209.19 222.67 221.58 217.25 227.25 C 211.83 232.92 200.27 237.00 201.78 245.22 C 203.30 253.45 217.26 244.89 221.25 238.25 C 225.23 231.60 239.12 230.74 241.77 240.23 C 244.42 249.72 244.92 261.67 241.07 270.07 C 237.23 278.48 232.43 284.98 224.92 289.92 C 217.40 294.86 208.46 299.89 198.98 298.98 C 189.49 298.06 181.27 300.21 176.00 310.00
C 188.68 306.63 209.46 307.15 221.01 302.01 C 232.56 296.86 255.37 299.24 257.00 285.00 C 258.63 270.76 254.15 249.02 254.00 235.00 C 253.85 220.98 244.16 210.17 234.75 201.25 C 225.34 192.32 209.80 189.92 202.00 183.00
C 201.14 182.86 200.38 183.16 199.00 183.00
C 190.86 180.05 185.37 175.69 178.25 170.76 C 171.13 165.83 167.64 180.69 164.30 186.30 C 160.97 191.92 155.02 199.96 148.75 203.75 C 142.48 207.55 139.37 216.17 132.74 219.74 C 126.12 223.31 121.00 210.76 115.25 206.75 C 109.50 202.74 103.22 196.10 98.75 190.25 C 94.29 184.39 91.37 175.62 88.00 169.00
C 76.50 176.38 64.95 182.85 52.08 188.08 C 39.21 193.30 29.18 199.55 18.75 209.75 C 8.33 219.95 5.84 238.13 5.93 251.93 C 6.01 265.72 -3.27 289.99 12.99 294.01 C 29.25 298.03 41.35 301.58 56.33 304.67 C 71.30 307.76 88.12 313.67 98.75 302.75 C 109.39 291.83 117.79 287.17 127.92 276.92 C 138.04 266.66 152.74 260.68 151.00 245.00 C 149.26 229.32 159.71 218.91 170.92 209.92 C 182.12 200.93 201.23 201.78 211.00 208.00 Z"/>
</g>
<g fill="None" fill-opacity="0.0" stroke="#2F527A" stroke-opacity="1.00" stroke-width="0.3"><path d="
M 135.00 170.00 
C 132.40 170.18 129.60 170.14 127.00 170.00
C 129.82 170.46 132.10 170.52 135.00 170.00 Z"/>
</g>
<g fill="None" fill-opacity="0.0" stroke="#CDD9E4" stroke-opacity="0.87" stroke-width="0.3"><path d="
M 101.00 172.00 
C 100.74 171.77 100.32 171.20 100.00 171.00
C 100.27 171.21 100.70 171.79 101.00 172.00 Z"/>
</g>
<g fill="None" fill-opacity="0.0" stroke="#D0E0EB" stroke-opacity="0.69" stroke-width="0.3"><path d="
M 183.00 173.00 
C 182.74 172.77 182.32 172.20 182.00 172.00
C 182.27 172.21 182.70 172.79 183.00 173.00 Z"/>
</g>
<g fill="None" fill-opacity="0.0" stroke="#12254A" stroke-opacity="1.00" stroke-width="0.3"><path d="
M 213.00 208.00 
C 213.55 208.25 216.58 211.24 218.00 212.00
C 219.07 212.57 219.44 212.98 220.00 214.00
C 222.79 219.11 219.81 222.83 216.00 226.00
C 214.97 227.05 214.12 228.07 213.00 229.00
C 208.92 232.70 193.46 242.84 201.10 248.90 C 208.74 254.96 215.92 245.58 222.92 238.92 C 229.91 232.26 240.79 235.45 241.07 246.93 C 241.35 258.40 242.31 267.38 236.25 276.25 C 230.20 285.13 225.59 288.09 216.69 292.69 C 207.80 297.30 195.94 297.95 186.00 296.00
C 182.85 301.82 176.74 307.44 171.00 311.00
C 181.63 312.45 193.98 308.87 205.00 307.00
C 205.90 306.71 206.65 306.18 208.00 306.00
C 216.40 304.85 228.10 302.58 235.78 299.78 C 243.45 296.97 255.27 296.88 258.00 289.00
C 258.68 285.65 258.00 281.43 258.00 278.00
C 258.00 249.02 258.20 218.88 235.00 200.00
C 234.72 199.77 234.26 199.23 234.00 199.00
C 224.94 192.61 212.97 184.84 202.00 183.00
C 209.80 189.92 225.34 192.32 234.75 201.25 C 244.16 210.17 253.85 220.98 254.00 235.00 C 254.15 249.02 258.63 270.76 257.00 285.00 C 255.37 299.24 232.56 296.86 221.01 302.01 C 209.46 307.15 188.68 306.63 176.00 310.00
C 181.27 300.21 189.49 298.06 198.98 298.98 C 208.46 299.89 217.40 294.86 224.92 289.92 C 232.43 284.98 237.23 278.48 241.07 270.07 C 244.92 261.67 244.42 249.72 241.77 240.23 C 239.12 230.74 225.23 231.60 221.25 238.25 C 217.26 244.89 203.30 253.45 201.78 245.22 C 200.27 237.00 211.83 232.92 217.25 227.25 C 222.67 221.58 225.45 209.19 213.00 208.00 Z"/>
</g>
<g fill="None" fill-opacity="0.0" stroke="#A7B5C6" stroke-opacity="0.94" stroke-width="0.3"><path d="
M 157.00 194.00 
C 157.72 193.29 158.33 192.92 159.00 192.00
C 158.34 192.69 157.65 193.14 157.00 194.00 Z"/>
</g>
<g fill="None" fill-opacity="0.0" stroke="#BDCBD8" stroke-opacity="1.00" stroke-width="0.3"><path d="
M 29.00 199.00 
C 29.30 198.79 29.74 198.23 30.00 198.00
C 29.70 198.21 29.26 198.77 29.00 199.00 Z"/>
</g>
<g fill="None" fill-opacity="0.0" stroke="#909EB2" stroke-opacity="1.00" stroke-width="0.3"><path d="
M 150.00 201.00 
C 151.12 200.07 151.97 199.05 153.00 198.00
C 151.88 198.93 151.03 199.95 150.00 201.00 Z"/>
</g>
<g fill="None" fill-opacity="0.0" stroke="#CDD9E4" stroke-opacity="0.87" stroke-width="0.3"><path d="
M 235.00 200.00 
C 234.75 199.75 234.30 199.21 234.00 199.00
C 234.26 199.23 234.72 199.77 235.00 200.00 Z"/>
</g>
<g fill="None" fill-opacity="0.0" stroke="#CDD9E4" stroke-opacity="0.87" stroke-width="0.3"><path d="
M 112.00 202.00 
C 111.73 201.79 111.32 201.20 111.00 201.00
C 111.27 201.21 111.68 201.80 112.00 202.00 Z"/>
</g>
<g fill="None" fill-opacity="0.0" stroke="#99ACBF" stroke-opacity="0.98" stroke-width="0.3"><path d="
M 190.00 205.00 
C 193.18 204.78 196.84 204.67 200.00 205.00
C 196.52 204.23 193.51 204.37 190.00 205.00 Z"/>
</g>
<g fill="None" fill-opacity="0.0" stroke="#B2C1D0" stroke-opacity="0.96" stroke-width="0.3"><path d="
M 136.00 214.00 
C 138.54 211.46 141.41 208.59 144.00 206.00
C 141.14 208.44 138.49 211.09 136.00 214.00 Z"/>
</g>
<g fill="None" fill-opacity="0.0" stroke="#B1C9D8" stroke-opacity="1.00" stroke-width="0.3"><path d="
M 14.00 213.00 
C 14.23 212.74 14.80 212.32 15.00 212.00
C 14.79 212.27 14.21 212.70 14.00 213.00 Z"/>
</g>
<g fill="None" fill-opacity="0.0" stroke="#B8C8D5" stroke-opacity="0.94" stroke-width="0.3"><path d="
M 220.00 214.00 
C 219.44 212.98 219.07 212.57 218.00 212.00
C 218.14 212.10 219.86 213.80 220.00 214.00 Z"/>
</g>
<g fill="None" fill-opacity="0.0" stroke="#CA1D1A" stroke-opacity="1.00" stroke-width="0.3"><path d="
M 130.00 339.00 
C 132.78 335.74 135.92 332.85 139.00 330.00
C 144.67 323.87 150.22 319.76 155.75 312.75 C 161.28 305.75 166.62 304.41 172.25 296.25 C 177.88 288.09 184.60 287.00 194.00 287.00
C 196.33 287.00 198.67 287.08 201.00 287.00
C 216.14 286.48 231.14 274.79 232.00 259.00
C 232.16 256.12 232.29 252.87 232.00 250.00
C 232.00 248.33 232.00 246.67 232.00 245.00
C 225.33 248.32 221.78 252.62 215.75 257.75 C 209.71 262.87 200.22 258.71 193.00 258.00
C 191.12 250.20 186.14 239.58 193.75 233.75 C 201.36 227.92 203.78 224.60 210.00 218.00
C 194.87 210.56 182.16 216.30 170.25 226.25 C 158.34 236.19 166.64 255.66 158.08 265.08 C 149.52 274.50 139.43 281.40 130.08 290.08 C 120.74 298.76 112.33 307.07 102.23 315.23 C 92.13 323.39 82.35 337.69 95.30 348.70 C 108.26 359.70 121.25 349.24 130.00 339.00
M 114.00 324.00 
C 124.02 327.16 117.91 345.83 106.93 341.07 C 95.95 336.32 102.61 320.41 114.00 324.00 Z"/>
</g>
<g fill="None" fill-opacity="0.0" stroke="#B1C9D8" stroke-opacity="1.00" stroke-width="0.3"><path d="
M 160.00 222.00 
C 160.23 221.74 160.80 221.32 161.00 221.00
C 160.79 221.27 160.21 221.70 160.00 222.00 Z"/>
</g>
<g fill="None" fill-opacity="0.0" stroke="#A5BACC" stroke-opacity="0.89" stroke-width="0.3"><path d="
M 213.00 229.00 
C 214.12 228.07 214.97 227.05 216.00 226.00
C 214.88 226.93 214.03 227.95 213.00 229.00 Z"/>
</g>
<g fill="None" fill-opacity="0.0" stroke="#E5827E" stroke-opacity="0.96" stroke-width="0.3"><path d="
M 232.00 259.00 
C 232.51 255.86 232.73 253.26 232.00 250.00
C 232.29 252.87 232.16 256.12 232.00 259.00 Z"/>
</g>
<g fill="None" fill-opacity="0.0" stroke="#6E86A1" stroke-opacity="0.99" stroke-width="0.3"><path d="
M 258.00 289.00 
C 259.31 285.22 258.36 281.67 258.00 278.00
C 258.00 281.43 258.68 285.65 258.00 289.00 Z"/>
</g>
<g fill="None" fill-opacity="0.0" stroke="#EFB0AE" stroke-opacity="1.00" stroke-width="0.3"><path d="
M 201.00 287.00 
C 198.67 287.08 196.33 287.00 194.00 287.00
C 196.25 287.22 198.63 287.34 201.00 287.00 Z"/>
</g>
<g fill="None" fill-opacity="0.0" stroke="#B7C5D3" stroke-opacity="0.89" stroke-width="0.3"><path d="
M 101.00 303.00 
C 102.12 302.07 102.97 301.05 104.00 300.00
C 102.88 300.93 102.03 301.95 101.00 303.00 Z"/>
</g>
<g fill="None" fill-opacity="0.0" stroke="#94A8BD" stroke-opacity="0.89" stroke-width="0.3"><path d="
M 205.00 307.00 
C 206.21 306.80 207.22 306.22 208.00 306.00
C 206.65 306.18 205.90 306.71 205.00 307.00 Z"/>
</g>
<g fill="None" fill-opacity="0.0" stroke="#C6D6E2" stroke-opacity="0.94" stroke-width="0.3"><path d="
M 91.00 312.00 
C 92.25 311.62 92.20 310.81 93.00 310.00
C 92.63 310.28 91.27 311.88 91.00 312.00 Z"/>
</g>
<g fill="None" fill-opacity="0.0" stroke="#FBF6F5" stroke-opacity="1.00" stroke-width="0.3"><path d="
M 114.00 324.00 
C 102.61 320.41 95.95 336.32 106.93 341.07 C 117.91 345.83 124.02 327.16 114.00 324.00 Z"/>
</g>
<g fill="None" fill-opacity="0.0" stroke="#E9918D" stroke-opacity="1.00" stroke-width="0.3"><path d="
M 130.00 339.00 
C 132.91 336.09 136.14 333.09 139.00 330.00
C 135.92 332.85 132.78 335.74 130.00 339.00 Z"/>
</g>
<g fill="#000000" fill-opacity="0.00" stroke="None">
<path d="
M 0.00 355.00 
L 262.00 355.00
L 262.00 0.00
L 0.00 0.00
L 0.00 355.00
M 133.00 5.00 
C 136.16 5.78 140.73 6.76 141.00 11.00
C 152.36 10.30 162.93 15.11 171.75 21.25 C 180.57 27.39 184.14 37.34 187.00 44.00
C 189.72 48.98 190.00 55.26 190.00 61.00
C 190.27 63.75 191.00 67.58 191.00 71.00
C 191.00 75.54 189.29 82.85 192.75 86.25 C 196.22 89.64 197.67 93.14 198.00 98.00
C 198.62 101.47 198.55 104.60 198.00 108.00
C 197.64 114.71 194.84 120.55 191.00 126.00
C 190.79 126.30 190.21 126.73 190.00 127.00
C 183.39 137.69 179.59 148.78 171.70 159.70 C 163.80 170.61 153.65 176.30 140.99 179.99 C 128.33 183.69 112.14 179.85 101.00 172.00
C 100.70 171.79 100.27 171.21 100.00 171.00
C 95.17 168.01 88.02 161.39 86.00 156.00
C 85.54 154.77 86.17 155.52 86.00 154.00
C 84.22 150.12 77.21 146.77 77.68 140.32 C 78.15 133.88 71.99 130.83 69.00 126.00
C 68.79 125.73 68.17 125.33 68.00 125.00
C 64.95 119.12 62.37 113.75 62.00 107.00
C 61.54 104.14 61.54 101.80 62.00 99.00
C 62.22 94.89 63.15 92.57 65.00 89.00
C 65.17 88.67 65.76 88.25 66.00 88.00
C 66.67 86.94 66.98 86.65 68.00 86.00
C 68.25 85.76 68.88 85.26 69.00 85.00
C 69.05 84.50 69.00 84.00 69.00 84.00
C 69.00 83.50 69.00 83.00 69.00 83.00
C 69.00 70.22 68.27 57.80 72.00 46.00
C 78.29 26.12 92.65 14.16 112.00 12.00
C 112.68 11.83 113.90 11.21 115.00 11.00
C 119.40 9.45 121.31 6.27 126.00 5.00
C 128.80 4.24 130.27 4.32 133.00 5.00
M 182.00 172.00 
C 182.32 172.20 182.74 172.77 183.00 173.00
C 185.36 174.66 189.22 177.59 192.08 177.92 C 194.93 178.25 199.34 183.11 199.00 183.00
C 200.38 183.16 201.14 182.86 202.00 183.00
C 212.97 184.84 224.94 192.61 234.00 199.00
C 234.30 199.21 234.75 199.75 235.00 200.00
C 258.20 218.88 258.00 249.02 258.00 278.00
C 258.36 281.67 259.31 285.22 258.00 289.00
C 255.27 296.88 243.45 296.97 235.78 299.78 C 228.10 302.58 216.40 304.85 208.00 306.00
C 207.22 306.22 206.21 306.80 205.00 307.00
C 193.98 308.87 181.63 312.45 171.00 311.00
C 176.74 307.44 182.85 301.82 186.00 296.00
C 195.94 297.95 207.80 297.30 216.69 292.69 C 225.59 288.09 230.20 285.13 236.25 276.25 C 242.31 267.38 241.35 258.40 241.07 246.93 C 240.79 235.45 229.91 232.26 222.92 238.92 C 215.92 245.58 208.74 254.96 201.10 248.90 C 193.46 242.84 208.92 232.70 213.00 229.00
C 214.03 227.95 214.88 226.93 216.00 226.00
C 219.81 222.83 222.79 219.11 220.00 214.00
C 219.86 213.80 218.14 212.10 218.00 212.00
C 216.58 211.24 213.55 208.25 213.00 208.00
C 211.91 207.90 211.88 208.21 211.00 208.00
C 207.28 207.13 203.78 205.84 200.00 205.00
C 196.84 204.67 193.18 204.78 190.00 205.00
C 179.77 205.70 166.74 211.72 161.00 221.00
C 160.80 221.32 160.23 221.74 160.00 222.00
C 152.46 232.71 151.48 245.81 152.00 259.00
C 134.98 270.67 120.35 286.95 104.00 300.00
C 102.97 301.05 102.12 302.07 101.00 303.00
C 98.30 305.24 95.73 307.91 93.00 310.00
C 92.20 310.81 92.25 311.62 91.00 312.00
C 82.50 314.61 71.28 307.94 62.33 307.67 C 53.38 307.40 44.65 303.34 35.33 301.67 C 26.01 300.00 18.74 296.47 8.78 294.22 C -1.18 291.98 2.23 277.74 2.93 268.93 C 3.62 260.11 3.78 246.98 4.99 237.99 C 6.20 229.00 8.70 220.53 14.00 213.00
C 14.21 212.70 14.79 212.27 15.00 212.00
C 18.26 206.72 24.18 202.39 29.00 199.00
C 29.26 198.77 29.70 198.21 30.00 198.00
C 38.46 192.04 52.09 184.53 61.69 181.69 C 71.30 178.86 85.51 162.81 91.30 172.70 C 97.10 182.58 100.19 194.31 111.00 201.00
C 111.32 201.20 111.73 201.79 112.00 202.00
C 119.44 206.60 123.90 215.80 131.00 220.00
C 132.11 217.59 134.96 216.38 136.00 214.00
C 138.49 211.09 141.14 208.44 144.00 206.00
C 145.94 204.34 148.08 202.59 150.00 201.00
C 151.03 199.95 151.88 198.93 153.00 198.00
C 154.57 196.69 155.78 195.59 157.00 194.00
C 157.65 193.14 158.34 192.69 159.00 192.00
C 166.90 181.17 167.20 162.85 182.00 172.00
M 232.00 250.00 
C 232.73 253.26 232.51 255.86 232.00 259.00
C 231.14 274.79 216.14 286.48 201.00 287.00
C 198.63 287.34 196.25 287.22 194.00 287.00
C 184.60 287.00 177.88 288.09 172.25 296.25 C 166.62 304.41 161.28 305.75 155.75 312.75 C 150.22 319.76 144.67 323.87 139.00 330.00
C 136.14 333.09 132.91 336.09 130.00 339.00
C 121.25 349.24 108.26 359.70 95.30 348.70 C 82.35 337.69 92.13 323.39 102.23 315.23 C 112.33 307.07 120.74 298.76 130.08 290.08 C 139.43 281.40 149.52 274.50 158.08 265.08 C 166.64 255.66 158.34 236.19 170.25 226.25 C 182.16 216.30 194.87 210.56 210.00 218.00
C 203.78 224.60 201.36 227.92 193.75 233.75 C 186.14 239.58 191.12 250.20 193.00 258.00
C 200.22 258.71 209.71 262.87 215.75 257.75 C 221.78 252.62 225.33 248.32 232.00 245.00
C 232.00 246.67 232.00 248.33 232.00 250.00 Z"/>
</g>
<g fill="#96AABD" fill-opacity="0.91" stroke="None">
<path d="
M 126.00 5.00 
C 128.10 4.72 130.89 4.76 133.00 5.00
C 130.27 4.32 128.80 4.24 126.00 5.00 Z"/>
</g>
<g fill="#002C5A" fill-opacity="1.00" stroke="None">
<path d="
M 115.00 11.00 
C 114.04 11.34 113.42 11.84 112.00 12.00
C 92.65 14.16 78.29 26.12 72.00 46.00
C 71.18 53.56 70.26 61.08 70.00 70.00 C 69.74 78.92 71.72 85.27 65.08 92.08 C 58.44 98.89 65.95 108.80 65.78 116.22 C 65.60 123.65 76.57 127.32 77.32 133.68 C 78.07 140.04 85.35 148.01 86.00 154.00
C 86.17 155.52 85.54 154.77 86.00 156.00
C 94.53 166.25 105.07 174.94 120.07 178.93 C 135.08 182.91 152.69 175.86 164.25 165.25 C 175.80 154.64 178.49 139.36 187.23 128.23 C 195.97 117.10 204.00 95.55 189.00 86.00
C 191.89 72.27 186.79 56.65 187.00 44.00
C 184.14 37.34 180.57 27.39 171.75 21.25 C 162.93 15.11 152.36 10.30 141.00 11.00
C 140.73 6.76 136.16 5.78 133.00 5.00
C 130.89 4.76 128.10 4.72 126.00 5.00
C 121.31 6.27 119.40 9.45 115.00 11.00
M 176.00 125.00 
C 174.63 134.77 170.13 144.30 164.25 152.25 C 158.36 160.20 152.04 165.98 142.92 169.92 C 133.80 173.87 119.46 171.89 111.31 166.69 C 103.15 161.50 96.59 155.04 92.08 146.92 C 87.58 138.79 85.01 127.48 78.25 121.75 C 71.49 116.03 67.15 98.83 74.25 93.25 C 81.36 87.68 93.84 93.22 102.08 86.08 C 110.32 78.94 123.93 79.34 134.00 79.00 C 144.07 78.66 155.81 82.78 164.08 87.92 C 172.34 93.07 185.76 87.09 188.32 98.68 C 190.88 110.27 184.91 119.79 176.00 125.00 Z"/>
</g>
<g fill="#647C99" fill-opacity="1.00" stroke="None">
<path d="
M 112.00 12.00 
C 113.42 11.84 114.04 11.34 115.00 11.00
C 113.90 11.21 112.68 11.83 112.00 12.00 Z"/>
</g>
<g fill="#102348" fill-opacity="1.00" stroke="None">
<path d="
M 86.00 156.00 
C 88.02 161.39 95.17 168.01 100.00 171.00
C 100.32 171.20 100.74 171.77 101.00 172.00
C 112.14 179.85 128.33 183.69 140.99 179.99 C 153.65 176.30 163.80 170.61 171.70 159.70 C 179.59 148.78 183.39 137.69 190.00 127.00
C 190.20 126.68 190.77 126.26 191.00 126.00
C 194.84 120.55 197.64 114.71 198.00 108.00
C 198.18 104.75 198.22 101.25 198.00 98.00
C 197.67 93.14 196.22 89.64 192.75 86.25 C 189.29 82.85 191.00 75.54 191.00 71.00
C 190.73 68.25 190.00 64.42 190.00 61.00
C 190.00 55.26 189.72 48.98 187.00 44.00
C 186.79 56.65 191.89 72.27 189.00 86.00
C 204.00 95.55 195.97 117.10 187.23 128.23 C 178.49 139.36 175.80 154.64 164.25 165.25 C 152.69 175.86 135.08 182.91 120.07 178.93 C 105.07 174.94 94.53 166.25 86.00 156.00 Z"/>
</g>
<g fill="#0E2044" fill-opacity="1.00" stroke="None">
<path d="
M 69.00 83.00 
C 69.20 84.42 69.98 82.60 69.00 84.00
C 69.00 84.00 69.05 84.50 69.00 85.00
C 68.97 85.35 68.31 85.80 68.00 86.00
C 66.98 86.65 66.67 86.94 66.00 88.00
C 65.80 88.31 65.18 88.73 65.00 89.00
C 63.15 92.57 62.22 94.89 62.00 99.00
C 61.86 101.61 61.86 104.39 62.00 107.00
C 62.37 113.75 64.95 119.12 68.00 125.00
C 68.18 125.27 68.80 125.68 69.00 126.00
C 71.99 130.83 78.15 133.88 77.68 140.32 C 77.21 146.77 84.22 150.12 86.00 154.00
C 85.35 148.01 78.07 140.04 77.32 133.68 C 76.57 127.32 65.60 123.65 65.78 116.22 C 65.95 108.80 58.44 98.89 65.08 92.08 C 71.72 85.27 69.74 78.92 70.00 70.00 C 70.26 61.08 71.18 53.56 72.00 46.00
C 68.27 57.80 69.00 70.22 69.00 83.00 Z"/>
</g>
<g fill="#4F6E90" fill-opacity="1.00" stroke="None">
<path d="
M 191.00 71.00 
C 191.00 67.58 190.27 63.75 190.00 61.00
C 190.00 64.42 190.73 68.25 191.00 71.00 Z"/>
</g>
<g fill="#04153C" fill-opacity="1.00" stroke="None">
<path d="
M 176.00 125.00 
C 184.91 119.79 190.88 110.27 188.32 98.68 C 185.76 87.09 172.34 93.07 164.08 87.92 C 155.81 82.78 144.07 78.66 134.00 79.00 C 123.93 79.34 110.32 78.94 102.08 86.08 C 93.84 93.22 81.36 87.68 74.25 93.25 C 67.15 98.83 71.49 116.03 78.25 121.75 C 85.01 127.48 87.58 138.79 92.08 146.92 C 96.59 155.04 103.15 161.50 111.31 166.69 C 119.46 171.89 133.80 173.87 142.92 169.92 C 152.04 165.98 158.36 160.20 164.25 152.25 C 170.13 144.30 174.63 134.77 176.00 125.00
M 135.00 170.00 
C 132.10 170.52 129.82 170.46 127.00 170.00
C 110.86 169.12 93.32 153.54 89.08 137.92 C 84.83 122.31 62.47 107.31 78.00 91.00
C 96.57 95.05 110.45 81.48 130.00 81.00 C 149.55 80.52 163.94 93.95 182.00 91.00
C 191.73 98.62 187.39 115.06 179.25 122.25 C 171.10 129.43 170.86 143.19 163.08 152.08 C 155.30 160.97 146.86 169.17 135.00 170.00 Z"/>
</g>
<g fill="#FAF6F6" fill-opacity="1.00" stroke="None">
<path d="
M 127.00 170.00 
C 129.60 170.14 132.40 170.18 135.00 170.00
C 146.86 169.17 155.30 160.97 163.08 152.08 C 170.86 143.19 171.10 129.43 179.25 122.25 C 187.39 115.06 191.73 98.62 182.00 91.00
C 163.94 93.95 149.55 80.52 130.00 81.00 C 110.45 81.48 96.57 95.05 78.00 91.00
C 62.47 107.31 84.83 122.31 89.08 137.92 C 93.32 153.54 110.86 169.12 127.00 170.00 Z"/>
</g>
<g fill="#5D718E" fill-opacity="1.00" stroke="None">
<path d="
M 69.00 84.00 
C 69.98 82.60 69.20 84.42 69.00 83.00
C 69.00 83.00 69.00 83.50 69.00 84.00 Z"/>
</g>
<g fill="#94AEC1" fill-opacity="1.00" stroke="None">
<path d="
M 68.00 86.00 
C 68.31 85.80 68.97 85.35 69.00 85.00
C 68.88 85.26 68.25 85.76 68.00 86.00 Z"/>
</g>
<g fill="#CDD9E4" fill-opacity="0.87" stroke="None">
<path d="
M 65.00 89.00 
C 65.18 88.73 65.80 88.31 66.00 88.00
C 65.76 88.25 65.17 88.67 65.00 89.00 Z"/>
</g>
<g fill="#526C8C" fill-opacity="1.00" stroke="None">
<path d="
M 198.00 108.00 
C 198.55 104.60 198.62 101.47 198.00 98.00
C 198.22 101.25 198.18 104.75 198.00 108.00 Z"/>
</g>
<g fill="#9FAEBF" fill-opacity="1.00" stroke="None">
<path d="
M 62.00 107.00 
C 61.86 104.39 61.86 101.61 62.00 99.00
C 61.54 101.80 61.54 104.14 62.00 107.00 Z"/>
</g>
<g fill="#D0E0EB" fill-opacity="0.69" stroke="None">
<path d="
M 69.00 126.00 
C 68.80 125.68 68.18 125.27 68.00 125.00
C 68.17 125.33 68.79 125.73 69.00 126.00 Z"/>
</g>
<g fill="#8BA4BA" fill-opacity="1.00" stroke="None">
<path d="
M 190.00 127.00 
C 190.21 126.73 190.79 126.30 191.00 126.00
C 190.77 126.26 190.20 126.68 190.00 127.00 Z"/>
</g>
<g fill="#102247" fill-opacity="1.00" stroke="None">
<path d="
M 159.00 192.00 
C 158.33 192.92 157.72 193.29 157.00 194.00
C 155.78 195.59 154.57 196.69 153.00 198.00
C 151.97 199.05 151.12 200.07 150.00 201.00
C 148.08 202.59 145.94 204.34 144.00 206.00
C 141.41 208.59 138.54 211.46 136.00 214.00
C 134.96 216.38 132.11 217.59 131.00 220.00
C 123.90 215.80 119.44 206.60 112.00 202.00
C 111.68 201.80 111.27 201.21 111.00 201.00
C 100.19 194.31 97.10 182.58 91.30 172.70 C 85.51 162.81 71.30 178.86 61.69 181.69 C 52.09 184.53 38.46 192.04 30.00 198.00
C 29.74 198.23 29.30 198.79 29.00 199.00
C 24.18 202.39 18.26 206.72 15.00 212.00
C 14.80 212.32 14.23 212.74 14.00 213.00
C 8.70 220.53 6.20 229.00 4.99 237.99 C 3.78 246.98 3.62 260.11 2.93 268.93 C 2.23 277.74 -1.18 291.98 8.78 294.22 C 18.74 296.47 26.01 300.00 35.33 301.67 C 44.65 303.34 53.38 307.40 62.33 307.67 C 71.28 307.94 82.50 314.61 91.00 312.00
C 91.27 311.88 92.63 310.28 93.00 310.00
C 95.73 307.91 98.30 305.24 101.00 303.00
C 102.03 301.95 102.88 300.93 104.00 300.00
C 120.35 286.95 134.98 270.67 152.00 259.00
C 151.48 245.81 152.46 232.71 160.00 222.00
C 160.21 221.70 160.79 221.27 161.00 221.00
C 166.74 211.72 179.77 205.70 190.00 205.00
C 193.51 204.37 196.52 204.23 200.00 205.00
C 203.78 205.84 207.28 207.13 211.00 208.00
C 201.23 201.78 182.12 200.93 170.92 209.92 C 159.71 218.91 149.26 229.32 151.00 245.00 C 152.74 260.68 138.04 266.66 127.92 276.92 C 117.79 287.17 109.39 291.83 98.75 302.75 C 88.12 313.67 71.30 307.76 56.33 304.67 C 41.35 301.58 29.25 298.03 12.99 294.01 C -3.27 289.99 6.01 265.72 5.93 251.93 C 5.84 238.13 8.33 219.95 18.75 209.75 C 29.18 199.55 39.21 193.30 52.08 188.08 C 64.95 182.85 76.50 176.38 88.00 169.00
C 91.37 175.62 94.29 184.39 98.75 190.25 C 103.22 196.10 109.50 202.74 115.25 206.75 C 121.00 210.76 126.12 223.31 132.74 219.74 C 139.37 216.17 142.48 207.55 148.75 203.75 C 155.02 199.96 160.97 191.92 164.30 186.30 C 167.64 180.69 171.13 165.83 178.25 170.76 C 185.37 175.69 190.86 180.05 199.00 183.00
C 199.34 183.11 194.93 178.25 192.08 177.92 C 189.22 177.59 185.36 174.66 183.00 173.00
C 182.70 172.79 182.27 172.21 182.00 172.00
C 167.20 162.85 166.90 181.17 159.00 192.00 Z"/>
</g>
<g fill="#002C5A" fill-opacity="1.00" stroke="None">
<path d="
M 211.00 208.00 
C 211.88 208.21 211.91 207.90 213.00 208.00
C 225.45 209.19 222.67 221.58 217.25 227.25 C 211.83 232.92 200.27 237.00 201.78 245.22 C 203.30 253.45 217.26 244.89 221.25 238.25 C 225.23 231.60 239.12 230.74 241.77 240.23 C 244.42 249.72 244.92 261.67 241.07 270.07 C 237.23 278.48 232.43 284.98 224.92 289.92 C 217.40 294.86 208.46 299.89 198.98 298.98 C 189.49 298.06 181.27 300.21 176.00 310.00
C 188.68 306.63 209.46 307.15 221.01 302.01 C 232.56 296.86 255.37 299.24 257.00 285.00 C 258.63 270.76 254.15 249.02 254.00 235.00 C 253.85 220.98 244.16 210.17 234.75 201.25 C 225.34 192.32 209.80 189.92 202.00 183.00
C 201.14 182.86 200.38 183.16 199.00 183.00
C 190.86 180.05 185.37 175.69 178.25 170.76 C 171.13 165.83 167.64 180.69 164.30 186.30 C 160.97 191.92 155.02 199.96 148.75 203.75 C 142.48 207.55 139.37 216.17 132.74 219.74 C 126.12 223.31 121.00 210.76 115.25 206.75 C 109.50 202.74 103.22 196.10 98.75 190.25 C 94.29 184.39 91.37 175.62 88.00 169.00
C 76.50 176.38 64.95 182.85 52.08 188.08 C 39.21 193.30 29.18 199.55 18.75 209.75 C 8.33 219.95 5.84 238.13 5.93 251.93 C 6.01 265.72 -3.27 289.99 12.99 294.01 C 29.25 298.03 41.35 301.58 56.33 304.67 C 71.30 307.76 88.12 313.67 98.75 302.75 C 109.39 291.83 117.79 287.17 127.92 276.92 C 138.04 266.66 152.74 260.68 151.00 245.00 C 149.26 229.32 159.71 218.91 170.92 209.92 C 182.12 200.93 201.23 201.78 211.00 208.00 Z"/>
</g>
<g fill="#2F527A" fill-opacity="1.00" stroke="None">
<path d="
M 135.00 170.00 
C 132.40 170.18 129.60 170.14 127.00 170.00
C 129.82 170.46 132.10 170.52 135.00 170.00 Z"/>
</g>
<g fill="#CDD9E4" fill-opacity="0.87" stroke="None">
<path d="
M 101.00 172.00 
C 100.74 171.77 100.32 171.20 100.00 171.00
C 100.27 171.21 100.70 171.79 101.00 172.00 Z"/>
</g>
<g fill="#D0E0EB" fill-opacity="0.69" stroke="None">
<path d="
M 183.00 173.00 
C 182.74 172.77 182.32 172.20 182.00 172.00
C 182.27 172.21 182.70 172.79 183.00 173.00 Z"/>
</g>
<g fill="#12254A" fill-opacity="1.00" stroke="None">
<path d="
M 213.00 208.00 
C 213.55 208.25 216.58 211.24 218.00 212.00
C 219.07 212.57 219.44 212.98 220.00 214.00
C 222.79 219.11 219.81 222.83 216.00 226.00
C 214.97 227.05 214.12 228.07 213.00 229.00
C 208.92 232.70 193.46 242.84 201.10 248.90 C 208.74 254.96 215.92 245.58 222.92 238.92 C 229.91 232.26 240.79 235.45 241.07 246.93 C 241.35 258.40 242.31 267.38 236.25 276.25 C 230.20 285.13 225.59 288.09 216.69 292.69 C 207.80 297.30 195.94 297.95 186.00 296.00
C 182.85 301.82 176.74 307.44 171.00 311.00
C 181.63 312.45 193.98 308.87 205.00 307.00
C 205.90 306.71 206.65 306.18 208.00 306.00
C 216.40 304.85 228.10 302.58 235.78 299.78 C 243.45 296.97 255.27 296.88 258.00 289.00
C 258.68 285.65 258.00 281.43 258.00 278.00
C 258.00 249.02 258.20 218.88 235.00 200.00
C 234.72 199.77 234.26 199.23 234.00 199.00
C 224.94 192.61 212.97 184.84 202.00 183.00
C 209.80 189.92 225.34 192.32 234.75 201.25 C 244.16 210.17 253.85 220.98 254.00 235.00 C 254.15 249.02 258.63 270.76 257.00 285.00 C 255.37 299.24 232.56 296.86 221.01 302.01 C 209.46 307.15 188.68 306.63 176.00 310.00
C 181.27 300.21 189.49 298.06 198.98 298.98 C 208.46 299.89 217.40 294.86 224.92 289.92 C 232.43 284.98 237.23 278.48 241.07 270.07 C 244.92 261.67 244.42 249.72 241.77 240.23 C 239.12 230.74 225.23 231.60 221.25 238.25 C 217.26 244.89 203.30 253.45 201.78 245.22 C 200.27 237.00 211.83 232.92 217.25 227.25 C 222.67 221.58 225.45 209.19 213.00 208.00 Z"/>
</g>
<g fill="#A7B5C6" fill-opacity="0.94" stroke="None">
<path d="
M 157.00 194.00 
C 157.72 193.29 158.33 192.92 159.00 192.00
C 158.34 192.69 157.65 193.14 157.00 194.00 Z"/>
</g>
<g fill="#BDCBD8" fill-opacity="1.00" stroke="None">
<path d="
M 29.00 199.00 
C 29.30 198.79 29.74 198.23 30.00 198.00
C 29.70 198.21 29.26 198.77 29.00 199.00 Z"/>
</g>
<g fill="#909EB2" fill-opacity="1.00" stroke="None">
<path d="
M 150.00 201.00 
C 151.12 200.07 151.97 199.05 153.00 198.00
C 151.88 198.93 151.03 199.95 150.00 201.00 Z"/>
</g>
<g fill="#CDD9E4" fill-opacity="0.87" stroke="None">
<path d="
M 235.00 200.00 
C 234.75 199.75 234.30 199.21 234.00 199.00
C 234.26 199.23 234.72 199.77 235.00 200.00 Z"/>
</g>
<g fill="#CDD9E4" fill-opacity="0.87" stroke="None">
<path d="
M 112.00 202.00 
C 111.73 201.79 111.32 201.20 111.00 201.00
C 111.27 201.21 111.68 201.80 112.00 202.00 Z"/>
</g>
<g fill="#99ACBF" fill-opacity="0.98" stroke="None">
<path d="
M 190.00 205.00 
C 193.18 204.78 196.84 204.67 200.00 205.00
C 196.52 204.23 193.51 204.37 190.00 205.00 Z"/>
</g>
<g fill="#B2C1D0" fill-opacity="0.96" stroke="None">
<path d="
M 136.00 214.00 
C 138.54 211.46 141.41 208.59 144.00 206.00
C 141.14 208.44 138.49 211.09 136.00 214.00 Z"/>
</g>
<g fill="#B1C9D8" fill-opacity="1.00" stroke="None">
<path d="
M 14.00 213.00 
C 14.23 212.74 14.80 212.32 15.00 212.00
C 14.79 212.27 14.21 212.70 14.00 213.00 Z"/>
</g>
<g fill="#B8C8D5" fill-opacity="0.94" stroke="None">
<path d="
M 220.00 214.00 
C 219.44 212.98 219.07 212.57 218.00 212.00
C 218.14 212.10 219.86 213.80 220.00 214.00 Z"/>
</g>
<g fill="#CA1D1A" fill-opacity="1.00" stroke="None">
<path d="
M 130.00 339.00 
C 132.78 335.74 135.92 332.85 139.00 330.00
C 144.67 323.87 150.22 319.76 155.75 312.75 C 161.28 305.75 166.62 304.41 172.25 296.25 C 177.88 288.09 184.60 287.00 194.00 287.00
C 196.33 287.00 198.67 287.08 201.00 287.00
C 216.14 286.48 231.14 274.79 232.00 259.00
C 232.16 256.12 232.29 252.87 232.00 250.00
C 232.00 248.33 232.00 246.67 232.00 245.00
C 225.33 248.32 221.78 252.62 215.75 257.75 C 209.71 262.87 200.22 258.71 193.00 258.00
C 191.12 250.20 186.14 239.58 193.75 233.75 C 201.36 227.92 203.78 224.60 210.00 218.00
C 194.87 210.56 182.16 216.30 170.25 226.25 C 158.34 236.19 166.64 255.66 158.08 265.08 C 149.52 274.50 139.43 281.40 130.08 290.08 C 120.74 298.76 112.33 307.07 102.23 315.23 C 92.13 323.39 82.35 337.69 95.30 348.70 C 108.26 359.70 121.25 349.24 130.00 339.00
M 114.00 324.00 
C 124.02 327.16 117.91 345.83 106.93 341.07 C 95.95 336.32 102.61 320.41 114.00 324.00 Z"/>
</g>
<g fill="#B1C9D8" fill-opacity="1.00" stroke="None">
<path d="
M 160.00 222.00 
C 160.23 221.74 160.80 221.32 161.00 221.00
C 160.79 221.27 160.21 221.70 160.00 222.00 Z"/>
</g>
<g fill="#A5BACC" fill-opacity="0.89" stroke="None">
<path d="
M 213.00 229.00 
C 214.12 228.07 214.97 227.05 216.00 226.00
C 214.88 226.93 214.03 227.95 213.00 229.00 Z"/>
</g>
<g fill="#E5827E" fill-opacity="0.96" stroke="None">
<path d="
M 232.00 259.00 
C 232.51 255.86 232.73 253.26 232.00 250.00
C 232.29 252.87 232.16 256.12 232.00 259.00 Z"/>
</g>
<g fill="#6E86A1" fill-opacity="0.99" stroke="None">
<path d="
M 258.00 289.00 
C 259.31 285.22 258.36 281.67 258.00 278.00
C 258.00 281.43 258.68 285.65 258.00 289.00 Z"/>
</g>
<g fill="#EFB0AE" fill-opacity="1.00" stroke="None">
<path d="
M 201.00 287.00 
C 198.67 287.08 196.33 287.00 194.00 287.00
C 196.25 287.22 198.63 287.34 201.00 287.00 Z"/>
</g>
<g fill="#B7C5D3" fill-opacity="0.89" stroke="None">
<path d="
M 101.00 303.00 
C 102.12 302.07 102.97 301.05 104.00 300.00
C 102.88 300.93 102.03 301.95 101.00 303.00 Z"/>
</g>
<g fill="#94A8BD" fill-opacity="0.89" stroke="None">
<path d="
M 205.00 307.00 
C 206.21 306.80 207.22 306.22 208.00 306.00
C 206.65 306.18 205.90 306.71 205.00 307.00 Z"/>
</g>
<g fill="#C6D6E2" fill-opacity="0.94" stroke="None">
<path d="
M 91.00 312.00 
C 92.25 311.62 92.20 310.81 93.00 310.00
C 92.63 310.28 91.27 311.88 91.00 312.00 Z"/>
</g>
<g fill="#FBF6F5" fill-opacity="1.00" stroke="None">
<path d="
M 114.00 324.00 
C 102.61 320.41 95.95 336.32 106.93 341.07 C 117.91 345.83 124.02 327.16 114.00 324.00 Z"/>
</g>
<g fill="#E9918D" fill-opacity="1.00" stroke="None">
<path d="
M 130.00 339.00 
C 132.91 336.09 136.14 333.09 139.00 330.00
C 135.92 332.85 132.78 335.74 130.00 339.00 Z"/>
</g>
</svg>